<?xml version="1.0" standalone="no"?>
<!DOCTYPE svg PUBLIC "-//W3C//DTD SVG 1.1//EN" "http://www.w3.org/Graphics/SVG/1.1/DTD/svg11.dtd" >
<svg xmlns="http://www.w3.org/2000/svg">
<metadata>Generated by IcoMoon</metadata>
<defs>
<font id="icomoon" horiz-adv-x="1024">
<font-face units-per-em="1024" ascent="960" descent="-64" />
<missing-glyph horiz-adv-x="1024" />
<glyph unicode="&#x20;" horiz-adv-x="512" d="" />
<glyph unicode="&#xe900;" glyph-name="cluster" horiz-adv-x="1182" d="M136.336 689.536c-28.313 0-51.265 22.952-51.265 51.265s22.952 51.265 51.265 51.265c28.313 0 51.265-22.952 51.265-51.265s-22.952-51.265-51.265-51.265zM533.277 689.536c-28.313 0-51.265 22.952-51.265 51.265s22.952 51.265 51.265 51.265c28.313 0 51.265-22.952 51.265-51.265s-22.952-51.265-51.265-51.265zM299.605 812.571c-28.313 0-51.265 22.952-51.265 51.265s22.952 51.265 51.265 51.265c28.313 0 51.265-22.952 51.265-51.265s-22.952-51.265-51.265-51.265zM333.591 581.637c-28.313 0-51.265 22.952-51.265 51.265s22.952 51.265 51.265 51.265c28.313 0 51.265-22.952 51.265-51.265s-22.952-51.265-51.265-51.265zM937.709 513.715c-28.313 0-51.265 22.952-51.265 51.265s22.952 51.265 51.265 51.265c28.313 0 51.265-22.952 51.265-51.265s-22.952-51.265-51.265-51.265zM1122.256 553.266c-28.313 0-51.265 22.952-51.265 51.265s22.952 51.265 51.265 51.265c28.313 0 51.265-22.952 51.265-51.265s-22.952-51.265-51.265-51.265zM888.584 676.3c-28.313 0-51.265 22.952-51.265 51.265s22.952 51.265 51.265 51.265c28.313 0 51.265-22.952 51.265-51.265s-22.952-51.265-51.265-51.265zM1029.983 337.953c-28.313 0-51.265 22.952-51.265 51.265s22.952 51.265 51.265 51.265c28.313 0 51.265-22.952 51.265-51.265s-22.952-51.265-51.265-51.265zM805.874 443.895c-28.313 0-51.265 22.952-51.265 51.265s22.952 51.265 51.265 51.265c28.313 0 51.265-22.952 51.265-51.265s-22.952-51.265-51.265-51.265zM286.774 138.949c-22.612 17.039-27.129 49.183-10.090 71.794s49.183 27.129 71.794 10.090c22.612-17.039 27.129-49.183 10.090-71.794s-49.183-27.129-71.794-10.090zM459.994 107.048c-22.612 17.039-27.129 49.183-10.090 71.794s49.183 27.129 71.794 10.090c22.612-17.039 27.129-49.183 10.090-71.794s-49.183-27.129-71.794-10.090zM160.958 233.758c-22.612 17.039-27.129 49.183-10.090 71.794s49.183 27.129 71.794 10.090c22.612-17.039 27.129-49.183 10.090-71.794s-49.183-27.129-71.794-10.090zM314.942-20.359c-22.612 17.039-27.129 49.183-10.090 71.794s49.183 27.129 71.794 10.090c22.612-17.039 27.129-49.183 10.090-71.794s-49.183-27.129-71.794-10.090zM129.057 60.538c-22.612 17.039-27.129 49.183-10.090 71.794s49.183 27.129 71.794 10.090c22.612-17.039 27.129-49.183 10.090-71.794s-49.183-27.129-71.794-10.090zM545.418 469.245l230.121 398.581 20.662-11.929-230.121-398.581 261.297-452.58-20.662-11.929-261.297 452.58h-522.594v23.858h522.594z" />
<glyph unicode="&#xe901;" glyph-name="SVM" d="M372.364 557.8c-51.413 0-93.091 41.672-93.091 93.077s41.678 93.077 93.091 93.077c51.413 0 93.091-41.672 93.091-93.077s-41.678-93.077-93.091-93.077zM93.091 185.494c-51.413 0-93.091 41.672-93.091 93.077s41.678 93.077 93.091 93.077c51.413 0 93.091-41.672 93.091-93.077s-41.678-93.077-93.091-93.077zM930.909 557.8c-51.413 0-93.091 41.672-93.091 93.077s41.678 93.077 93.091 93.077c51.413 0 93.091-41.672 93.091-93.077s-41.678-93.077-93.091-93.077zM862.642 24.151c-51.413 0-93.091 41.672-93.091 93.077s41.678 93.077 93.091 93.077c51.413 0 93.091-41.672 93.091-93.077s-41.678-93.077-93.091-93.077zM651.636 278.57c-51.413 0-93.091 41.672-93.091 93.077s41.678 93.077 93.091 93.077c51.413 0 93.091-41.672 93.091-93.077s-41.678-93.077-93.091-93.077zM747.802 960l40.31-23.273-558.459-967.28-40.31 23.273 558.459 967.28z" />
<glyph unicode="&#xe902;" glyph-name="column-transformation" horiz-adv-x="1210" d="M0 960v-1024h279.273v93.091h-186.182v837.818h186.182v93.091zM930.909 960v-93.091h186.182v-837.818h-186.182v-93.091h279.273v1024zM198.494 773.818l90.050-306.282-102.363-345.355h54.008l85.628 296.097 84.609-296.097h55.028l-105.453 345.355 93.141 306.282h-48.753l-78.57-253.965-76.184 253.965zM744.727 773.818l112.615-463.642-46.040-187.995h50.076l162.622 651.636h-47.040l-92.596-359.125-85.319 359.125zM514.57 471.273l46.768 57.533v58.831l-114.352-143.36 114.352-143.36v58.942l-56.59 69.524h203.69l-56.802-71.209v-57.257l114.491 145.55-114.491 141.17v-57.205l47.161-59.159z" />
<glyph unicode="&#xe903;" glyph-name="difference" horiz-adv-x="1536" d="M712.054 805.506c-100.679-89.223-160.53-226.664-160.53-357.506 0-132.688 81.298-253.381 182.578-344.214 112.825 72.95 187.498 199.861 187.498 344.214 0 153.561-84.504 287.385-209.546 357.506zM512-64c-282.77 0-512 229.23-512 512s229.23 512 512 512c282.77 0 512-229.23 512-512s-229.23-512-512-512zM1024-64c-282.77 0-512 229.23-512 512s229.23 512 512 512c282.77 0 512-229.23 512-512s-229.23-512-512-512zM1024 38.4c226.216 0 409.6 183.384 409.6 409.6s-183.384 409.6-409.6 409.6c-226.216 0-409.6-183.384-409.6-409.6s183.384-409.6 409.6-409.6z" />
<glyph unicode="&#xe904;" glyph-name="bayes" horiz-adv-x="1536" d="M1024-64c-282.77 0-512 229.23-512 512s229.23 512 512 512c282.77 0 512-229.23 512-512s-229.23-512-512-512zM1024-17.455c257.063 0 465.455 208.391 465.455 465.455s-208.391 465.455-465.455 465.455c-257.063 0-465.455-208.391-465.455-465.455s208.391-465.455 465.455-465.455zM512-64c-282.77 0-512 229.23-512 512s229.23 512 512 512c282.77 0 512-229.23 512-512s-229.23-512-512-512zM512-17.455c257.063 0 465.455 208.391 465.455 465.455s-208.391 465.455-465.455 465.455c-257.063 0-465.455-208.391-465.455-465.455s208.391-465.455 465.455-465.455zM508.111 860.672h19.456l57.549-146.227h-18.227l-15.565 40.96h-67.174l-15.565-40.96h-18.022l57.549 146.227zM489.474 769.536h56.525l-27.648 73.114h-0.819l-28.058-73.114zM987.138 860.672h65.331c13.517 0 24.371-3.277 32.358-9.83 7.782-6.554 11.674-15.565 11.674-27.034 0-8.192-2.253-15.36-6.554-21.299-4.506-5.325-10.445-9.216-17.818-11.674 9.626-1.638 16.998-5.734 22.323-11.878s8.192-13.926 8.192-23.757c0-14.336-5.12-24.986-15.155-31.949-8.602-5.734-20.48-8.806-35.43-8.806h-64.922v146.227zM1003.931 846.541v-49.766h44.442c10.24 0 18.022 2.253 23.347 6.349 5.325 4.301 8.192 10.65 8.192 19.046 0 8.192-2.662 14.336-7.987 18.432s-13.107 5.939-23.347 5.939h-44.646zM1003.931 782.848v-54.272h46.694c10.24 0 18.227 2.048 24.371 5.734 7.168 4.506 10.854 11.674 10.854 21.094s-3.277 16.384-9.421 20.89c-5.939 4.506-14.541 6.554-25.805 6.554h-46.694zM744.444 418.304v45.056c0 9.523 2.458 16.794 7.373 21.914 4.915 5.018 12.186 7.578 21.811 7.578s16.896-2.56 21.914-7.68c4.813-5.018 7.27-12.288 7.27-21.811v-45.056h-8.397v45.158c0 7.168-1.638 12.595-4.813 16.282-3.482 3.789-8.806 5.734-15.974 5.734-7.27 0-12.595-1.946-15.974-5.734-3.277-3.686-4.813-9.114-4.813-16.282v-45.158h-8.397zM836.81 490.393h32.666c6.758 0 12.186-1.638 16.179-4.915 3.891-3.277 5.837-7.782 5.837-13.517 0-4.096-1.126-7.68-3.277-10.65-2.253-2.662-5.222-4.608-8.909-5.837 4.813-0.819 8.499-2.867 11.162-5.939s4.096-6.963 4.096-11.878c0-7.168-2.56-12.493-7.578-15.974-4.301-2.867-10.24-4.403-17.715-4.403h-32.461v73.114zM845.207 483.328v-24.883h22.221c5.12 0 9.011 1.126 11.674 3.174 2.662 2.15 4.096 5.325 4.096 9.523 0 4.096-1.331 7.168-3.994 9.216s-6.554 2.97-11.674 2.97h-22.323zM845.207 451.481v-27.136h23.347c5.12 0 9.114 1.024 12.186 2.867 3.584 2.253 5.427 5.837 5.427 10.547s-1.638 8.192-4.71 10.445c-2.97 2.253-7.27 3.277-12.902 3.277h-23.347zM684.131 490.393h9.728l28.774-73.114h-9.114l-7.782 20.48h-33.587l-7.782-20.48h-9.011l28.774 73.114zM674.812 444.825h28.262l-13.824 36.557h-0.41l-14.029-36.557z" />
<glyph unicode="&#xe905;" glyph-name="union" horiz-adv-x="1396" d="M930.909 429.382c0-257.063-208.391-465.455-465.455-465.455s-465.455 208.391-465.455 465.455c0 257.063 208.391 465.455 465.455 465.455s465.455-208.391 465.455-465.455zM1396.364 429.381c0-257.063-208.391-465.455-465.455-465.455s-465.455 208.391-465.455 465.455c0 257.063 208.391 465.455 465.455 465.455s465.455-208.391 465.455-465.455zM465.455-36.073c-257.063 0-465.455 208.391-465.455 465.455s208.391 465.455 465.455 465.455c257.063 0 465.455-208.391 465.455-465.455s-208.391-465.455-465.455-465.455zM465.455 57.018c205.651 0 372.364 166.713 372.364 372.364s-166.713 372.364-372.364 372.364c-205.651 0-372.364-166.713-372.364-372.364s166.713-372.364 372.364-372.364zM930.909-36.073c-257.063 0-465.455 208.391-465.455 465.455s208.391 465.455 465.455 465.455c257.063 0 465.455-208.391 465.455-465.455s-208.391-465.455-465.455-465.455zM930.909 57.018c205.651 0 372.364 166.713 372.364 372.364s-166.713 372.364-372.364 372.364c-205.651 0-372.364-166.713-372.364-372.364s166.713-372.364 372.364-372.364z" />
<glyph unicode="&#xe906;" glyph-name="intersection" horiz-adv-x="1396" d="M899.9 414.996c0-172.284-57.748-287.017-196.873-367.496-139.125 80.479-197.706 209.12-197.706 381.404s58.581 276.389 197.706 356.868c0 0 196.873-198.492 196.873-370.776zM930.909-45.382c-257.063 0-465.455 208.391-465.455 465.455s208.391 465.455 465.455 465.455c257.063 0 465.455-208.391 465.455-465.455s-208.391-465.455-465.455-465.455zM930.909 47.709c205.651 0 372.364 166.713 372.364 372.364s-166.713 372.364-372.364 372.364c-205.651 0-372.364-166.713-372.364-372.364s166.713-372.364 372.364-372.364zM465.455-45.382c-257.063 0-465.455 208.391-465.455 465.455s208.391 465.455 465.455 465.455c257.063 0 465.455-208.391 465.455-465.455s-208.391-465.455-465.455-465.455zM465.455 47.709c205.651 0 372.364 166.713 372.364 372.364s-166.713 372.364-372.364 372.364c-205.651 0-372.364-166.713-372.364-372.364s166.713-372.364 372.364-372.364z" />
<glyph unicode="&#xe907;" glyph-name="contact" d="M651.246 475.849l83.547-83.547 278.491 278.491-278.491 278.491-278.491-278.491 83.547-83.547 55.698 55.698-27.849 27.849 167.095 167.095 167.095-167.095-167.095-167.095-27.849 27.849-55.698-55.698zM484.151 308.754l83.547-83.547-278.491-278.491-278.491 278.491 278.491 278.491 83.547-83.547-55.698-55.698-27.849 27.849-167.095-167.095 167.095-167.095 167.095 167.095-27.849 27.849 55.698 55.698zM289.207 280.905l389.888 389.888 55.698-55.698-389.888-389.888z" />
<glyph unicode="&#xe908;" glyph-name="extract" horiz-adv-x="1117" d="M345.593 494.545h-144.975l-200.618-179.195 93.091-379.35h930.909l93.91 379.35-201.554 179.195h-144.581l119.062-179.195h-132.82l-47.947-177.305h-301.711l-48.612 177.305h-122.812zM485.133 270.697h152.117v355.107h181.022l-259.726 334.195-279.273-334.195h205.861z" />
<glyph unicode="&#xe909;" glyph-name="order" horiz-adv-x="1126" d="M204.8 448v512h102.4v-512h204.8l-256-512-256 512h204.8zM921.6 448h204.8l-256 512-256-512h204.8v-512h102.4v512z" />
<glyph unicode="&#xe90a;" glyph-name="uniq" horiz-adv-x="1117" d="M0 960h1117.091v-1024h-1117.091v1024zM605.091 773.818v-744.727h418.909v744.727h-418.909zM93.091 773.818v-744.727h418.909v744.727h-418.909zM277.89 643.489h53.035l156.872-491.52h-49.685l-42.428 137.681h-183.11l-42.428-137.681h-49.127l156.872 491.52zM227.088 337.149h154.080l-75.365 245.76h-2.233l-76.482-245.76zM789.89 643.489h53.035l156.872-491.52h-64.834l-42.428 137.681h-152.816l-42.428-137.681h-64.273l156.872 491.52zM754.609 340.988h121.673l-58.717 208.376h-2.233l-60.723-208.376zM632.085 576.466l403.095-232.727-18.619-32.25-403.095 232.727zM631.74 455.449l403.095-232.727-18.619-32.25-403.095 232.727z" />
<glyph unicode="&#xe90b;" glyph-name="linear-regression" d="M0 960h85.333v-1024h-85.333v1024zM850.117 837.62l60.34-60.34-663.738-663.738-60.34 60.34 663.738 663.738zM0 21.333h1024v-85.333h-1024v85.333z" />
<glyph unicode="&#xe90c;" glyph-name="logistic-regression" d="M0 960h85.333v-1024h-85.333v1024zM0 21.333h1024v-85.333h-1024v85.333zM142.902 121.061c0 0 58.646 209.459 200.772 318.081s260.677 3.862 348.647 107.975c87.97 104.113 118.114 313.833 118.114 313.833l26.406-35.132c0 0-19.3-177.78-117.013-298.352s-240.658-18.346-360.594-113.851c-119.936-95.505-189.944-326.349-189.944-326.349l-26.387 33.794z" />
<glyph unicode="&#xe90d;" glyph-name="database" horiz-adv-x="878" d="M438.857 550.4c-242.374 0-438.857 91.692-438.857 204.8s196.483 204.8 438.857 204.8c242.374 0 438.857-91.692 438.857-204.8s-196.483-204.8-438.857-204.8zM13.826 601.6c48.718-88.332 220.541-153.6 425.031-153.6s376.313 65.268 425.031 153.6c9.026-16.365 13.826-33.521 13.826-51.2 0-113.108-196.483-204.8-438.857-204.8s-438.857 91.692-438.857 204.8c0 17.679 4.8 34.835 13.826 51.2zM13.826 396.8c48.718-88.332 220.541-153.6 425.031-153.6s376.313 65.268 425.031 153.6c9.026-16.365 13.826-33.521 13.826-51.2 0-113.108-196.483-204.8-438.857-204.8s-438.857 91.692-438.857 204.8c0 17.679 4.8 34.835 13.826 51.2zM13.826 192c48.718-88.332 220.541-153.6 425.031-153.6s376.313 65.268 425.031 153.6c9.026-16.365 13.826-33.521 13.826-51.2 0-113.108-196.483-204.8-438.857-204.8s-438.857 91.692-438.857 204.8c0 17.679 4.8 34.835 13.826 51.2z" />
<glyph unicode="&#xe90e;" glyph-name="expert-analysia" horiz-adv-x="1536" d="M0 704l763.409 256 772.591-256-772.591-256zM1228.8 446.248v-407.153c0-56.937-45.702-103.094-102.149-103.094h-717.303c-56.415 0-102.149 45.529-102.149 103.094v408.906l460.8-147.464 460.8 145.712zM1331.2 704h102.4v-358.4h-102.4v358.4z" />
<glyph unicode="&#xe90f;" glyph-name="filter" horiz-adv-x="945" d="M0 960h945.231l-393.493-472.615v-393.846l-157.892-157.538v551.385z" />
<glyph unicode="&#xe910;" glyph-name="forecast" horiz-adv-x="945" d="M435.57 404.844l-259.438 33.086 184.070 185.799-48.704 256.965 233.586-117.646 229.338 125.727-39.706-258.508 190.443-179.261-258.126-42.12-111.638-236.516zM498.485 490.184l55.698-55.698-501.284-501.284-55.698 55.698 501.284 501.284z" />
<glyph unicode="&#xe911;" glyph-name="group" d="M0 960h1024v-1024h-1024v1024zM78.769 881.231v-866.462h866.462v866.462h-866.462zM78.769 644.923h866.462v-78.769h-866.462v78.769zM78.769 329.846h866.462v-78.769h-866.462zM275.692 763.077c0-43.503-35.266-78.769-78.769-78.769s-78.769 35.266-78.769 78.769c0 43.503 35.266 78.769 78.769 78.769s78.769-35.266 78.769-78.769zM275.692 448c0-43.503-35.266-78.769-78.769-78.769s-78.769 35.266-78.769 78.769c0 43.503 35.266 78.769 78.769 78.769s78.769-35.266 78.769-78.769zM275.692 132.923c0-43.503-35.266-78.769-78.769-78.769s-78.769 35.266-78.769 78.769c0 43.503 35.266 78.769 78.769 78.769s78.769-35.266 78.769-78.769z" />
<glyph unicode="&#xe912;" glyph-name="merge" horiz-adv-x="683" d="M323.023 960l-261.557-395.364h161.806c0 0-27.428-387.903-223.272-432.883v-159.955c0 0 67.902-7.583 165.279 63.129s157.744 211.575 157.744 211.575c0 0 66.17-142.706 162.408-211.575s160.615-69.762 160.615-69.762v166.588c-197.975 45.181-224.119 432.883-224.119 432.883h159.632l-258.536 395.364z" />
<glyph unicode="&#xe913;" glyph-name="search" horiz-adv-x="945" d="M494.209 413.895l-413.46-413.46-55.698 55.698 412.514 412.514zM630.154 329.846c-174.012 0-315.077 141.065-315.077 315.077s141.065 315.077 315.077 315.077c174.012 0 315.077-141.065 315.077-315.077s-141.065-315.077-315.077-315.077zM630.154 408.615c130.509 0 236.308 105.799 236.308 236.308s-105.799 236.308-236.308 236.308c-130.509 0-236.308-105.799-236.308-236.308s105.799-236.308 236.308-236.308z" />
</font>
</defs>
</svg>
